<!DOCTYPE svg PUBLIC "-//W3C//DTD SVG 1.1//EN" "http://www.w3.org/Graphics/SVG/1.1/DTD/svg11.dtd">
<!-- Uploaded to: SVG Repo, www.svgrepo.com, Transformed by: SVG Repo Mixer Tools -->
<svg width="150px" height="150px" viewBox="0 0 24 24" fill="none" xmlns="http://www.w3.org/2000/svg" stroke="#acff2fa8" transform="matrix(1, 0, 0, 1, 0, 0)rotate(0)">
<g id="SVGRepo_bgCarrier" stroke-width="0"/>
<g id="SVGRepo_tracerCarrier" stroke-linecap="round" stroke-linejoin="round" stroke="#CCCCCC" stroke-width="0.576"/>
<g id="SVGRepo_iconCarrier"> <path d="M22 11.0857V12.0057C21.9988 14.1621 21.3005 16.2604 20.0093 17.9875C18.7182 19.7147 16.9033 20.9782 14.8354 21.5896C12.7674 22.201 10.5573 22.1276 8.53447 21.3803C6.51168 20.633 4.78465 19.2518 3.61096 17.4428C2.43727 15.6338 1.87979 13.4938 2.02168 11.342C2.16356 9.19029 2.99721 7.14205 4.39828 5.5028C5.79935 3.86354 7.69279 2.72111 9.79619 2.24587C11.8996 1.77063 14.1003 1.98806 16.07 2.86572M22 4L12 14.01L9 11.01" stroke="#acff2fa8" stroke-width="2.4" stroke-linecap="round" stroke-linejoin="round"/> </g>
</svg>